<svg width="271" height="23" viewBox="0 0 271 23" fill="none" xmlns="http://www.w3.org/2000/svg"><g clip-path="url(#clip0)"><path d="M124.068 3.84211C123.259 2.91973 121.796 2.52429 119.924 2.52429H114.493C114.11 2.52429 113.785 2.80274 113.725 3.1803L111.464 17.523C111.419 17.8058 111.638 18.0621 111.924 18.0621H115.277L116.119 12.7207L116.093 12.888C116.153 12.5104 116.476 12.232 116.859 12.232H118.452C121.582 12.232 124.033 10.9605 124.749 7.28265C124.77 7.17387 124.789 7.068 124.805 6.96455C124.714 6.91669 124.714 6.91669 124.805 6.96455C125.018 5.60516 124.803 4.67988 124.068 3.84211Z" fill="#003087"/><path d="M158.71 10.6243H156.906C156.733 10.6243 156.572 10.7098 156.475 10.8529L153.985 14.5192L152.931 10.996C152.864 10.7756 152.661 10.6243 152.431 10.6243H150.658C150.443 10.6243 150.293 10.835 150.362 11.0376L152.349 16.8706L150.48 19.5077C150.333 19.7146 150.481 20.0008 150.735 20.0008H152.538C152.708 20.0008 152.868 19.9171 152.966 19.7769L158.967 11.1149C159.111 10.9075 158.963 10.6243 158.71 10.6243ZM146.646 14.1189C146.472 15.1447 145.658 15.8336 144.619 15.8336C144.099 15.8336 143.681 15.6658 143.414 15.3487C143.148 15.0345 143.048 14.5864 143.132 14.0879C143.294 13.0708 144.121 12.3602 145.144 12.3602C145.654 12.3602 146.068 12.5294 146.341 12.8494C146.616 13.1719 146.725 13.6224 146.646 14.1189ZM149.148 10.6242H147.353C147.199 10.6242 147.068 10.7359 147.044 10.8882L146.965 11.39L146.84 11.2082C146.45 10.644 145.584 10.455 144.718 10.455C142.735 10.455 141.04 11.9585 140.711 14.0667C140.539 15.1186 140.783 16.1237 141.379 16.8251C141.927 17.4695 142.709 17.7378 143.64 17.7378C145.239 17.7378 146.126 16.711 146.126 16.711L146.046 17.2099C146.016 17.3994 146.162 17.571 146.355 17.571H147.971C148.228 17.571 148.446 17.3849 148.486 17.1316L149.457 10.9853C149.487 10.7958 149.34 10.6242 149.148 10.6242ZM138.374 10.6673C138.169 12.0132 137.141 12.0132 136.147 12.0132H135.581L135.978 9.50034C136.002 9.34855 136.133 9.23688 136.286 9.23688H136.546C137.223 9.23688 137.862 9.23688 138.191 9.62217C138.389 9.85276 138.448 10.195 138.374 10.6673ZM137.941 7.15573H134.192C133.935 7.15573 133.717 7.34233 133.677 7.59565L132.161 17.21C132.131 17.3995 132.277 17.5711 132.469 17.5711H134.26C134.516 17.5711 134.734 17.3845 134.774 17.1317L135.184 14.5376C135.223 14.2843 135.442 14.0977 135.698 14.0977H136.884C139.354 14.0977 140.78 12.9027 141.152 10.5334C141.32 9.49793 141.159 8.68384 140.674 8.11388C140.141 7.48736 139.196 7.15573 137.941 7.15573Z" fill="#002F86"/><path d="M178.007 7.41993L176.468 17.2103C176.438 17.3998 176.585 17.5714 176.777 17.5714H178.325C178.581 17.5714 178.799 17.3848 178.839 17.1315L180.357 7.51709C180.386 7.32759 180.24 7.15597 180.048 7.15597H178.316C178.162 7.15597 178.031 7.26765 178.007 7.41993ZM173.389 14.1189C173.215 15.1447 172.401 15.8336 171.362 15.8336C170.842 15.8336 170.424 15.6659 170.157 15.3487C169.891 15.0345 169.791 14.5864 169.875 14.088C170.037 13.0708 170.864 12.3602 171.887 12.3602C172.397 12.3602 172.811 12.5294 173.084 12.8494C173.359 13.1719 173.468 13.6224 173.389 14.1189ZM175.891 10.6242H174.095C173.942 10.6242 173.811 10.7359 173.787 10.8882L173.708 11.39L173.582 11.2082C173.193 10.644 172.327 10.455 171.461 10.455C169.478 10.455 167.783 11.9585 167.454 14.0667C167.282 15.1186 167.526 16.1237 168.122 16.8251C168.67 17.4695 169.452 17.7378 170.383 17.7378C171.982 17.7378 172.869 16.711 172.869 16.711L172.789 17.2099C172.759 17.3994 172.905 17.571 173.098 17.571H174.714C174.971 17.571 175.189 17.3849 175.229 17.1316L176.2 10.9853C176.23 10.7958 176.083 10.6242 175.891 10.6242ZM165.117 10.6673C164.912 12.0132 163.884 12.0132 162.89 12.0132H162.324L162.721 9.50034C162.745 9.34855 162.875 9.23688 163.029 9.23688H163.289C163.966 9.23688 164.605 9.23688 164.934 9.62217C165.132 9.85276 165.191 10.195 165.117 10.6673ZM164.684 7.15573H160.935C160.678 7.15573 160.46 7.34233 160.42 7.59565L158.904 17.21C158.874 17.3995 159.021 17.5711 159.212 17.5711H161.136C161.315 17.5711 161.468 17.4406 161.496 17.2637L161.927 14.5376C161.966 14.2843 162.185 14.0977 162.441 14.0977H163.627C166.097 14.0977 167.523 12.9027 167.895 10.5334C168.063 9.49793 167.902 8.68384 167.417 8.11388C166.884 7.48736 165.938 7.15573 164.684 7.15573Z" fill="#009CDE"/><path d="M124.068 3.84211C123.259 2.91973 121.796 2.52429 119.924 2.52429H114.493C114.11 2.52429 113.785 2.80274 113.725 3.1803L111.464 17.523C111.419 17.8058 111.638 18.0621 111.924 18.0621H115.277L116.119 12.7207L116.093 12.888C116.153 12.5104 116.476 12.232 116.859 12.232H118.452C121.582 12.232 124.033 10.9605 124.749 7.28265C124.77 7.17387 124.789 7.068 124.805 6.96455C124.714 6.91669 124.714 6.91669 124.805 6.96455C125.018 5.60516 124.803 4.67988 124.068 3.84211Z" fill="#003087"/><path d="M117.024 6.98262C117.06 6.75541 117.206 6.56929 117.403 6.47503C117.492 6.43248 117.592 6.4088 117.696 6.4088H121.954C122.458 6.4088 122.929 6.44167 123.358 6.5108C123.482 6.5306 123.601 6.55334 123.717 6.57945C123.833 6.60505 123.946 6.63407 124.055 6.66598C124.11 6.68191 124.163 6.69839 124.216 6.71577C124.427 6.78635 124.624 6.86853 124.805 6.96474C125.018 5.60486 124.803 4.68007 124.068 3.84229C123.258 2.91992 121.796 2.52448 119.925 2.52448H114.493C114.11 2.52448 113.785 2.80293 113.725 3.18048L111.464 17.5227C111.419 17.806 111.638 18.0618 111.924 18.0618H115.277L116.12 12.7204L117.024 6.98262Z" fill="#002F86"/><path d="M124.805 6.96457C124.788 7.06851 124.77 7.17389 124.749 7.28266C124.033 10.9601 121.582 12.232 118.452 12.232H116.858C116.476 12.232 116.153 12.5104 116.093 12.888L115.277 18.0616L115.046 19.5293C115.007 19.7768 115.198 20.0011 115.448 20.0011H118.275C118.61 20.0011 118.894 19.7574 118.947 19.4273L118.974 19.2832L119.507 15.907L119.541 15.7204C119.593 15.3902 119.878 15.1465 120.213 15.1465H120.636C123.374 15.1465 125.518 14.0342 126.144 10.817C126.406 9.47258 126.27 8.35007 125.579 7.5616C125.369 7.32279 125.108 7.12555 124.805 6.96457" fill="#009CDE"/><path d="M124.055 6.66575C123.946 6.63385 123.833 6.60484 123.717 6.57922C123.601 6.55358 123.481 6.53088 123.358 6.51106C122.928 6.44144 122.458 6.40857 121.954 6.40857H117.696C117.591 6.40857 117.492 6.43228 117.403 6.47528C117.206 6.56955 117.06 6.75519 117.025 6.98288L116.12 12.7206L116.094 12.8879C116.153 12.5104 116.476 12.2319 116.858 12.2319H118.452C121.582 12.2319 124.033 10.9605 124.749 7.2826C124.771 7.17383 124.788 7.06844 124.805 6.96451C124.624 6.86879 124.427 6.78612 124.216 6.71603C124.163 6.69862 124.11 6.68169 124.055 6.66575Z" fill="#012069"/></g><path d="M206.457 19.8632H197.708V4.13934H206.457V19.8632Z" fill="#FF5F00"/><path d="M198.268 12C198.268 8.81038 199.762 5.96913 202.087 4.13812C200.387 2.79919 198.24 2.00003 195.908 2.00003C190.386 2.00003 185.909 6.47711 185.909 12C185.909 17.523 190.386 22 195.908 22C198.24 22 200.387 21.2009 202.087 19.8619C199.762 18.0309 198.268 15.1897 198.268 12Z" fill="#EB001B"/><path d="M218.257 12C218.257 17.523 213.781 22 208.258 22C205.926 22 203.779 21.2009 202.078 19.8619C204.404 18.0309 205.898 15.1897 205.898 12C205.898 8.81038 204.404 5.96913 202.078 4.13812C203.779 2.79919 205.926 2.00003 208.258 2.00003C213.781 2.00003 218.257 6.47711 218.257 12Z" fill="#F79E1B"/><path d="M9.24826 9.54814C8.48813 9.54814 7.85468 8.87574 7.85468 8.06885C7.85468 7.26197 8.48813 6.58956 9.24826 6.58956C10.0084 6.58956 10.6418 7.26197 10.6418 8.06885C10.6418 8.87574 10.0084 9.54814 9.24826 9.54814ZM11.402 0C5.06754 0 0 5.11027 0 11.4309C0 16.9446 3.80065 21.5169 8.99488 22.5928V12.3722C8.99488 11.8343 9.37495 11.4309 9.88171 11.4309H10.3885H11.402V0Z" fill="#00985F"/><path d="M19.304 17.7515C18.5438 17.7515 17.9104 17.0791 17.9104 16.2722C17.9104 15.4653 18.5438 14.7929 19.304 14.7929C20.0641 14.7929 20.6975 15.4653 20.6975 16.2722C20.6975 17.0791 20.0641 17.7515 19.304 17.7515ZM16.0101 17.7515C15.2499 17.7515 14.6165 17.0791 14.6165 16.2722C14.6165 15.4653 15.2499 14.7929 16.0101 14.7929C16.7702 14.7929 17.4036 15.4653 17.4036 16.2722C17.4036 17.0791 16.7702 17.7515 16.0101 17.7515ZM12.5895 17.7515C11.8293 17.7515 11.1959 17.0791 11.1959 16.2722C11.1959 15.4653 11.8293 14.7929 12.5895 14.7929C13.3496 14.7929 13.983 15.4653 13.983 16.2722C14.1097 17.0791 13.3496 17.7515 12.5895 17.7515ZM12.8429 0.13446V11.4309V11.8343C12.8429 12.3722 12.4628 12.7757 11.956 12.7757H11.4493H10.4358C10.3091 12.7757 10.3091 12.7757 10.3091 12.9101V22.7272C10.6891 22.7272 11.0692 22.7272 11.3226 22.7272C17.657 22.7272 22.7246 17.617 22.7246 11.2964C22.8512 5.64818 18.5438 0.806865 12.8429 0.13446Z" fill="#232077"/><g clip-path="url(#clip1)"><path d="M39.0909 22.7273C45.4041 22.7273 50.4546 17.6768 50.4546 11.3636C50.4546 5.0505 45.4041 0 39.0909 0C32.7778 0 27.7273 5.0505 27.7273 11.3636C27.7273 17.6768 32.7778 22.7273 39.0909 22.7273ZM39.0909 4.16667C41.6162 4.16667 44.394 8.71212 44.394 12.7525C44.394 15.9091 42.5 18.5606 39.0909 18.5606C35.6818 18.5606 33.7879 15.9091 33.7879 12.7525C33.7879 8.83838 36.5657 4.16667 39.0909 4.16667Z" fill="red"/><path d="M39.0909 18.5606C42.5 18.5606 44.3939 15.9091 44.3939 12.7525C44.3939 8.83837 41.6161 4.16666 39.0909 4.16666C36.5656 4.16666 33.7878 8.71211 33.7878 12.7525C33.7878 15.9091 35.6818 18.5606 39.0909 18.5606Z" fill="#fff"/></g><g clip-path="url(#clip2)"><path d="M58.0769 18.7313H75.5594C76.6832 17.3576 77.5574 15.6094 78.0569 13.7363H55.7042C56.0788 15.6094 56.953 17.3576 58.0769 18.7313Z" fill="url(#paint0_linear)"/><path d="M58.327 3.87109C57.0782 5.24472 56.2041 6.99297 55.8295 8.8661H78.0572C77.6826 6.99297 76.8085 5.36959 75.5597 3.87109H58.327Z" fill="url(#paint1_linear)"/><path d="M66.8184 0C63.4468 0 60.3249 1.4985 58.3269 3.87113H75.4348C73.3119 1.4985 70.19 0 66.8184 0Z" fill="#000"/><path d="M55.4546 11.3636C55.4546 12.2377 55.5795 12.987 55.7043 13.7362H77.9321C78.057 12.987 78.1819 12.1129 78.1819 11.3636C78.1819 10.4895 78.057 9.61537 77.9321 8.86612H55.7043C55.5795 9.61537 55.4546 10.4895 55.4546 11.3636Z" fill="#000"/><path d="M66.8185 22.7273C70.315 22.7273 73.4369 21.1039 75.5598 18.7313H58.0773C60.2001 21.2288 63.322 22.7273 66.8185 22.7273Z" fill="#000"/></g><g clip-path="url(#clip3)"><path d="M94.5454 22.7273C100.821 22.7273 105.909 17.6396 105.909 11.3636C105.909 5.08767 100.821 0 94.5454 0C88.2694 0 83.1818 5.08767 83.1818 11.3636C83.1818 17.6396 88.2694 22.7273 94.5454 22.7273Z" fill="#000"/><path d="M85.3282 9.8485V10.8586L88.106 10.6061V9.46971L85.3282 9.8485ZM86.2121 10.8586V14.2677H87.2222V10.8586H86.2121ZM88.3585 9.34345V14.2677H89.3687V9.21719L88.3585 9.34345ZM89.6212 9.21719V10.3536L91.1363 10.2273V8.96466L89.6212 9.21719ZM89.6212 11.2374V12.3738H90.6313V11.1111L89.6212 11.2374ZM89.6212 13.2576V14.394H91.1363V13.2576H89.6212ZM95.0505 8.45961V14.394H96.4394V8.20709L95.0505 8.45961ZM96.6919 8.20709V9.59598L98.7121 9.34345V7.95456L96.6919 8.20709ZM96.6919 10.6061V11.995L97.9545 11.8687V10.4798L96.6919 10.6061ZM96.6919 13.0051V14.394H98.7121V13.0051H96.6919ZM91.5151 8.96466V14.394H92.6515V8.8384L91.5151 8.96466ZM92.904 13.1313V14.394H94.6717V13.1313H92.904ZM103.131 7.8283C102.752 7.44951 102.121 7.19699 101.364 7.32325V8.8384C101.616 8.8384 101.869 8.96466 101.995 9.09093C102.121 9.46971 101.995 9.97476 101.616 10.3536C100.985 11.1111 99.3434 12.5 99.3434 12.5L101.616 12.3738C103.005 10.9849 103.51 10.101 103.636 9.09093C103.763 8.8384 103.51 8.20709 103.131 7.8283ZM103.763 14.394V12.8788L99.0909 13.0051L103.763 14.394ZM99.0909 12.8788V14.2677H103.763L99.0909 12.8788ZM101.111 7.44951C99.7222 7.70204 99.0909 8.71214 99.2171 10.3536L100.606 10.2273C100.48 9.34345 100.859 9.09093 101.111 8.96466V7.44951Z" fill="#fff"/></g><path d="M243.841 19.1479H239.967L242.388 4.26592H246.263L243.841 19.1479ZM236.707 4.26592L233.014 14.5018L232.576 12.2976L232.577 12.2984L231.273 5.60587C231.273 5.60587 231.116 4.26592 229.435 4.26592H223.329L223.257 4.51791C223.257 4.51791 225.124 4.90643 227.31 6.21892L230.676 19.1483H234.713L240.877 4.26592H236.707ZM267.183 19.1479H270.74L267.638 4.26552H264.524C263.086 4.26552 262.735 5.37458 262.735 5.37458L256.957 19.1479H260.996L261.803 16.9373H266.729L267.183 19.1479ZM262.919 13.8836L264.955 8.31443L266.1 13.8836H262.919ZM257.26 7.84469L257.813 4.64887C257.813 4.64887 256.106 4 254.328 4C252.405 4 247.839 4.84035 247.839 8.92668C247.839 12.7714 253.198 12.8191 253.198 14.8386C253.198 16.8581 248.391 16.4962 246.805 15.2228L246.229 18.5643C246.229 18.5643 247.959 19.4046 250.602 19.4046C253.246 19.4046 257.235 18.0356 257.235 14.3096C257.235 10.4402 251.828 10.0799 251.828 8.39763C251.828 6.71493 255.602 6.93109 257.26 7.84469Z" fill="#2566AF"/><path d="M232.577 12.298L231.273 5.60542C231.273 5.60542 231.116 4.26547 229.435 4.26547H223.329L223.257 4.51746C223.257 4.51746 226.192 5.12573 229.007 7.40476C231.699 9.58307 232.577 12.298 232.577 12.298Z" fill="#E6A540"/><defs><clipPath id="clip0"><path fill="#fff" transform="translate(110.909 2)" d="M0 0H70V18.525H0z"/></clipPath><clipPath id="clip1"><path fill="#fff" transform="translate(27.727)" d="M0 0H22.727V22.727H0z"/></clipPath><clipPath id="clip2"><path fill="#fff" transform="translate(55.455)" d="M0 0H22.727V22.727H0z"/></clipPath><clipPath id="clip3"><path fill="#fff" transform="translate(83.182)" d="M0 0H22.727V22.727H0z"/></clipPath><linearGradient id="paint0_linear" x1="55.438" y1="16.252" x2="78.198" y2="16.252" gradientUnits="userSpaceOnUse"><stop stop-color="#FAA61A"/><stop offset="1" stop-color="#FFE100"/></linearGradient><linearGradient id="paint1_linear" x1="55.438" y1="6.363" x2="78.198" y2="6.363" gradientUnits="userSpaceOnUse"><stop stop-color="#FAA61A"/><stop offset="1" stop-color="#FFE100"/></linearGradient></defs></svg>